<svg width="129" height="120" viewBox="0 0 129 120" fill="none" xmlns="http://www.w3.org/2000/svg">
<ellipse cx="64.5" cy="60" rx="64.5" ry="60" fill="#C4C4C4"/>
<rect x="64.2727" y="51.589" width="15" height="54" transform="rotate(54.73 64.2727 51.589)" fill="#726767"/>
<path d="M87.3097 67.0151L77.5797 66.0833C74.594 65.7973 71.8824 64.221 70.1564 61.768L64.4405 53.6444C63.0367 51.6492 62.3929 49.2177 62.6254 46.7893L63.552 37.114C63.5784 36.8391 63.8225 36.6376 64.0974 36.664C64.3723 36.6903 64.6165 36.4888 64.6428 36.2139L64.8335 34.223C64.8598 33.9481 65.104 33.7466 65.3789 33.773C65.6537 33.7993 65.8979 33.5978 65.9243 33.3229C65.9506 33.048 66.1948 32.8465 66.4696 32.8729C66.7445 32.8992 66.9887 32.6977 67.015 32.4228L67.1104 31.4274C67.1367 31.1525 67.3809 30.951 67.6558 30.9773C67.9306 31.0036 68.1748 30.8021 68.2011 30.5272C68.2275 30.2524 68.4716 30.0509 68.7465 30.0772C69.0214 30.1035 69.2656 29.902 69.2919 29.6271C69.3182 29.3523 69.5624 29.1508 69.8373 29.1771C70.1122 29.2034 70.3564 29.0019 70.3827 28.727C70.409 28.4521 70.6532 28.2506 70.9281 28.277C71.203 28.3033 71.4472 28.1018 71.4735 27.8269C71.4998 27.552 71.744 27.3505 72.0189 27.3769C72.2938 27.4032 72.5379 27.2017 72.5643 26.9268C72.5906 26.6519 72.8348 26.4504 73.1096 26.4767L74.1051 26.5721C74.38 26.5984 74.6242 26.3969 74.6505 26.122C74.6768 25.8471 74.921 25.6456 75.1959 25.672L76.1913 25.7673C76.4662 25.7936 76.7104 25.5921 76.7367 25.3172C76.763 25.0424 77.0072 24.8409 77.2821 24.8672L79.273 25.0579C79.5479 25.0842 79.7921 24.8827 79.8184 24.6078C79.8447 24.3329 80.0889 24.1314 80.3638 24.1577L88.3273 24.9204C89.152 24.9994 89.7565 25.7319 89.6775 26.5566L89.5822 27.552C89.5558 27.8269 89.3117 28.0284 89.0368 28.0021C88.7619 27.9758 88.5177 28.1773 88.4914 28.4521C88.4651 28.727 88.2209 28.9285 87.946 28.9022C87.6711 28.8759 87.4269 29.0774 87.4006 29.3522C87.3743 29.6271 87.1301 29.8286 86.8552 29.8023C86.5803 29.776 86.3362 29.9775 86.3098 30.2524C86.2835 30.5272 86.0393 30.7287 85.7644 30.7024C85.4896 30.6761 85.2454 30.8776 85.2191 31.1525C85.1927 31.4274 84.9485 31.6289 84.6737 31.6025C84.3988 31.5762 84.1546 31.7777 84.1283 32.0526C84.1019 32.3275 83.8578 32.529 83.5829 32.5026C83.308 32.4763 83.0638 32.6778 83.0375 32.9527C83.0112 33.2276 82.767 33.4291 82.4921 33.4028C82.2172 33.3764 81.973 33.5779 81.9467 33.8528C81.9204 34.1277 81.6762 34.3292 81.4013 34.3029C81.1264 34.2765 80.8823 34.478 80.8559 34.7529C80.8296 35.0278 80.5854 35.2293 80.3105 35.203C80.0357 35.1767 79.7915 35.3781 79.7652 35.653C79.7388 35.9279 79.4947 36.1294 79.2198 36.1031C78.9449 36.0768 78.7007 36.2783 78.6744 36.5531C78.6481 36.828 78.4039 37.0295 78.129 37.0032C77.8541 36.9769 77.6099 37.1784 77.5836 37.4533L77.3929 39.4441C77.3666 39.719 77.5681 39.9632 77.843 39.9895C78.1179 40.0159 78.3194 40.26 78.293 40.5349C78.2667 40.8098 78.4682 41.054 78.7431 41.0803C79.018 41.1066 79.2195 41.3508 79.1932 41.6257C79.1668 41.9006 79.3683 42.1448 79.6432 42.1711C79.9181 42.1974 80.1196 42.4416 80.0933 42.7165C80.0669 42.9914 80.2684 43.2355 80.5433 43.2619C80.8182 43.2882 81.0197 43.5324 80.9934 43.8073C80.9671 44.0821 81.1685 44.3263 81.4434 44.3527C81.7183 44.379 81.9198 44.6232 81.8935 44.898C81.8672 45.1729 82.0687 45.4171 82.3435 45.4434C82.6184 45.4698 82.8199 45.7139 82.7936 45.9888C82.7673 46.2637 82.9688 46.5079 83.2437 46.5342C83.5185 46.5605 83.72 46.8047 83.6937 47.0796C83.6674 47.3545 83.8689 47.5987 84.1438 47.625C84.4187 47.6513 84.6202 47.8955 84.5938 48.1704C84.5675 48.4453 84.769 48.6894 85.0439 48.7158C85.3188 48.7421 85.5203 48.9863 85.4939 49.2612C85.4676 49.536 85.6691 49.7802 85.944 49.8065C86.2189 49.8329 86.4204 50.0771 86.394 50.3519C86.3677 50.6268 86.5692 50.871 86.8441 50.8973C87.119 50.9237 87.3205 51.1678 87.2942 51.4427C87.2678 51.7176 87.4693 51.9618 87.7442 51.9881L91.726 52.3694C92.0009 52.3958 92.2451 52.1943 92.2714 51.9194C92.2977 51.6445 92.5419 51.443 92.8168 51.4693C93.0917 51.4957 93.3358 51.2942 93.3622 51.0193C93.3885 50.7444 93.6327 50.5429 93.9076 50.5692C94.1824 50.5955 94.4266 50.394 94.4529 50.1192C94.4793 49.8443 94.7235 49.6428 94.9983 49.6691C95.2732 49.6954 95.5174 49.4939 95.5437 49.219C95.5701 48.9442 95.8142 48.7427 96.0891 48.769C96.364 48.7953 96.6082 48.5938 96.6345 48.3189C96.6608 48.0441 96.905 47.8426 97.1799 47.8689C97.4548 47.8952 97.699 47.6937 97.7253 47.4188C97.7516 47.1439 97.9958 46.9424 98.2707 46.9688C98.5456 46.9951 98.7897 46.7936 98.8161 46.5187C98.8424 46.2438 99.0866 46.0423 99.3615 46.0687C99.6363 46.095 99.8805 45.8935 99.9068 45.6186C99.9332 45.3437 100.177 45.1422 100.452 45.1685C100.727 45.1949 100.971 44.9934 100.998 44.7185C101.024 44.4436 101.268 44.2421 101.543 44.2684C101.818 44.2948 102.062 44.0933 102.088 43.8184C102.115 43.5435 102.359 43.342 102.634 43.3683L104.127 43.5113C104.677 43.564 105.08 44.0523 105.027 44.6021L104.312 52.0679C104.286 52.3428 104.042 52.5443 103.767 52.518C103.492 52.4917 103.248 52.6932 103.221 52.9681L102.935 55.9544C102.909 56.2293 102.665 56.4308 102.39 56.4044C102.115 56.3781 101.871 56.5796 101.845 56.8545L101.749 57.8499C101.723 58.1248 101.479 58.3263 101.204 58.3C100.929 58.2737 100.685 58.4752 100.658 58.7501C100.632 59.0249 100.388 59.2264 100.113 59.2001C99.8381 59.1738 99.5939 59.3753 99.5676 59.6502L99.4723 60.6456C99.446 60.9205 99.2018 61.122 98.9269 61.0957C98.652 61.0693 98.4078 61.2708 98.3815 61.5457C98.3552 61.8206 98.111 62.0221 97.8361 61.9958C97.5612 61.9695 97.3171 62.171 97.2907 62.4458C97.2644 62.7207 97.0202 62.9222 96.7453 62.8959C96.4705 62.8696 96.2263 63.0711 96.1999 63.346C96.1736 63.6208 95.9294 63.8223 95.6546 63.796L94.6591 63.7007C94.3842 63.6743 94.14 63.8758 94.1137 64.1507C94.0874 64.4256 93.8432 64.6271 93.5683 64.6008C93.2934 64.5745 93.0493 64.776 93.0229 65.0508C92.9966 65.3257 92.7524 65.5272 92.4776 65.5009L91.4821 65.4056C91.2072 65.3792 90.963 65.5807 90.9367 65.8556C90.9104 66.1305 90.6662 66.332 90.3913 66.3057L88.4004 66.115C88.1256 66.0887 87.8814 66.2902 87.855 66.5651C87.8287 66.8399 87.5845 67.0414 87.3097 67.0151Z" fill="#726767"/>
</svg>
