<svg width="129" height="120" viewBox="0 0 129 120" fill="none" xmlns="http://www.w3.org/2000/svg">
<ellipse cx="64.5" cy="60" rx="64.5" ry="60" fill="#C4C4C4"/>
<path d="M74.1423 58.0286C74.1423 60.0851 72.6251 61.7709 70.7034 61.7709C68.8154 61.7709 67.2646 60.0851 67.2646 58.0286C67.2646 55.972 68.7817 54.2863 70.7034 54.2863C72.6251 54.2863 74.1423 55.972 74.1423 58.0286ZM58.3977 54.2863C56.476 54.2863 54.9589 55.972 54.9589 58.0286C54.9589 60.0851 56.5097 61.7709 58.3977 61.7709C60.3194 61.7709 61.8366 60.0851 61.8366 58.0286C61.8703 55.972 60.3194 54.2863 58.3977 54.2863ZM94 32.9451V93.4286C85.5064 85.9227 88.2227 88.4073 78.3566 79.2349L80.1434 85.472H41.9114C38.1017 85.472 35 82.3703 35 78.5269V32.9451C35 29.1017 38.1017 26 41.9114 26H87.0886C90.8983 26 94 29.1017 94 32.9451ZM84.3914 64.9063C84.3914 54.0503 79.5366 45.2509 79.5366 45.2509C74.6817 41.6097 70.0629 41.7109 70.0629 41.7109L69.5909 42.2503C75.3223 44.0034 77.9857 46.532 77.9857 46.532C69.9771 42.1427 60.5697 42.1419 52.8011 45.5543C51.5537 46.1274 50.812 46.532 50.812 46.532C50.812 46.532 53.6103 43.8686 59.6789 42.1154L59.3417 41.7109C59.3417 41.7109 54.7229 41.6097 49.868 45.2509C49.868 45.2509 45.0131 54.0503 45.0131 64.9063C45.0131 64.9063 47.8451 69.7949 55.296 70.0309C55.296 70.0309 56.5434 68.5137 57.5549 67.2326C53.2731 65.9514 51.6549 63.2543 51.6549 63.2543C52.1508 63.6014 52.9687 64.0514 53.0371 64.0971C58.7277 67.2839 66.811 68.328 74.0749 65.2771C75.2549 64.8389 76.5697 64.1983 77.952 63.288C77.952 63.288 76.2663 66.0526 71.8497 67.3C72.8611 68.5811 74.0749 70.0309 74.0749 70.0309C81.5257 69.7949 84.3914 64.9063 84.3914 64.9063V64.9063Z" fill="#726767"/>
</svg>
