<svg width="129" height="120" viewBox="0 0 129 120" fill="none" xmlns="http://www.w3.org/2000/svg">
<ellipse cx="64.5" cy="60" rx="64.5" ry="60" fill="#C4C4C4"/>
<path d="M49.75 82.5C46.75 82.5 43.75 79.875 42.25 78.75C34.75 73.5 32.5 71.625 31 70.5V86.25C31 88.3207 32.6793 90 34.75 90H64.75C66.8207 90 68.5 88.3207 68.5 86.25V70.5C67 71.625 64.75 73.5 57.25 78.75C55.75 79.875 52.75 82.5 49.75 82.5ZM64.75 60H34.75C32.6793 60 31 61.6793 31 63.75V65.625C34 67.875 33.625 67.875 44.5 75.75C45.625 76.5 47.875 78.75 49.75 78.75C51.625 78.75 53.875 76.5 55 76.125C65.875 68.25 65.5 68.25 68.5 66V63.75C68.5 61.6793 66.8207 60 64.75 60ZM94.75 48.75H57.25C55.1793 48.75 53.5 50.4293 53.5 52.5V56.25H64.75C68.6418 56.25 71.8504 59.2289 72.216 63.0258L72.25 63V78.75H94.75C96.8207 78.75 98.5 77.0707 98.5 75V52.5C98.5 50.4293 96.8207 48.75 94.75 48.75ZM91 63.75H83.5V56.25H91V63.75ZM49.75 52.5C49.75 48.3645 53.1145 45 57.25 45H83.5V33.75C83.5 31.6793 81.8207 30 79.75 30H42.25C40.1793 30 38.5 31.6793 38.5 33.75V56.25H49.75V52.5Z" fill="#726767"/>
</svg>
