<svg width="129" height="120" viewBox="0 0 129 120" fill="none" xmlns="http://www.w3.org/2000/svg">
<ellipse cx="64.5" cy="60" rx="64.5" ry="60" fill="#C4C4C4"/>
<path fill-rule="evenodd" clip-rule="evenodd" d="M61.6086 26.7226C63.5326 26.5553 65.4676 26.5553 67.3916 26.7226C67.5739 26.7378 67.9385 26.9049 68.0854 27.4619L69.5489 33.0576C70.2933 35.8935 72.3341 37.9545 74.5977 39.0787C75.4788 39.5142 76.3245 40.0054 77.1348 40.5473C79.2464 41.9551 82.0468 42.6894 84.8827 41.9146L90.4632 40.3802C91.0202 40.2283 91.3494 40.4612 91.4507 40.6131C92.5597 42.183 93.5269 43.8591 94.3523 45.6214C94.4232 45.7784 94.4637 46.1785 94.0536 46.5836L89.9264 50.6651C87.8451 52.7211 87.0804 55.5114 87.2425 58.0383C87.3049 59.0197 87.3049 60.0041 87.2425 60.9856C87.0804 63.5125 87.8451 66.3028 89.9264 68.3587L94.0536 72.4403C94.4587 72.8454 94.4232 73.2455 94.3523 73.4025C93.5345 75.1557 92.5635 76.8333 91.4507 78.4158C91.3494 78.5627 91.0152 78.7906 90.4632 78.6437L84.8776 77.1093C82.0468 76.3345 79.2464 77.0688 77.1348 78.4766C76.3245 79.0184 75.4788 79.5097 74.6028 79.9452C72.329 81.0694 70.2933 83.1253 69.5489 85.9662L68.0854 91.562C67.9385 92.119 67.5739 92.2861 67.3916 92.3013C65.4675 92.4681 63.5326 92.4681 61.6086 92.3013C61.4262 92.2861 61.0616 92.1139 60.9148 91.562L59.4513 85.9662C58.7069 83.1304 56.6661 81.0694 54.4025 79.9452C53.5262 79.5106 52.6787 79.02 51.8654 78.4766C49.7537 77.0688 46.9534 76.3345 44.1175 77.1093L38.537 78.6437C37.98 78.7956 37.6508 78.5627 37.5495 78.4108C36.4369 76.8299 35.4659 75.154 34.6479 73.4025C34.577 73.2455 34.5364 72.8454 34.9466 72.4403L39.0738 68.3587C41.1551 66.3028 41.9197 63.5125 41.7577 60.9856C41.6953 60.0041 41.6953 59.0197 41.7577 58.0383C41.9197 55.5114 41.1551 52.7211 39.0738 50.6651L34.9466 46.5836C34.5415 46.1785 34.577 45.7784 34.6479 45.6214C35.4645 43.8675 36.4355 42.1898 37.5495 40.6081C37.6508 40.4612 37.985 40.2283 38.537 40.3802L44.1226 41.9146C46.9534 42.6894 49.7537 41.9551 51.8654 40.5473C52.6757 40.0054 53.5214 39.5142 54.3974 39.0787C56.6712 37.9545 58.7069 35.8985 59.4513 33.0576L60.9148 27.4619C61.0616 26.9049 61.4262 26.7378 61.6086 26.7226V26.7226ZM64.5001 19C63.305 19 62.12 19.0506 60.9502 19.1519C57.1877 19.4811 54.4177 22.2663 53.5669 25.5376L52.0984 31.1384C52.0123 31.4726 51.7034 31.9385 51.0299 32.2727C49.8615 32.851 48.7316 33.5039 47.6471 34.2274C47.0243 34.6427 46.4672 34.6832 46.1279 34.587L40.5474 33.0576C37.2862 32.1613 33.4983 33.1589 31.3309 36.248C29.9635 38.1933 28.7705 40.2556 27.7659 42.4108C26.1707 45.829 27.2038 49.6118 29.6041 51.9868L33.7313 56.0684C33.9845 56.3115 34.2275 56.8128 34.1769 57.5572C34.0941 58.8591 34.0941 60.1648 34.1769 61.4666C34.2275 62.2111 33.9845 62.7124 33.7313 62.9555L29.6041 67.037C27.2038 69.4121 26.1707 73.1949 27.7659 76.613C28.7787 78.7804 29.9738 80.8415 31.3309 82.781C33.4983 85.865 37.2862 86.8626 40.5474 85.9713L46.133 84.4369C46.4672 84.3407 47.0243 84.3812 47.6471 84.7965C48.7258 85.5206 49.855 86.1739 51.0299 86.7512C51.7034 87.0854 52.0123 87.5513 52.1034 87.8855L53.5669 93.4863C54.4227 96.7576 57.1877 99.5428 60.9502 99.8669C63.3123 100.072 65.6878 100.072 68.0499 99.8669C71.8125 99.5428 74.5825 96.7576 75.4333 93.4863L76.9018 87.8855C76.9879 87.5513 77.2968 87.0854 77.9703 86.7512C79.1388 86.1731 80.2687 85.5202 81.3531 84.7965C81.9759 84.3812 82.533 84.3407 82.8723 84.4369L88.4528 85.9662C91.714 86.8626 95.5019 85.865 97.6692 82.7759C99.0264 80.8415 100.227 78.7804 101.234 76.613C102.829 73.1949 101.796 69.4121 99.391 67.037L95.2689 62.9555C95.0157 62.7124 94.7726 62.2111 94.8233 61.4666C94.9058 60.1648 94.9058 58.8591 94.8233 57.5572C94.7726 56.8128 95.0208 56.3115 95.2689 56.0684L99.391 51.9868C101.796 49.6118 102.829 45.829 101.234 42.4108C100.23 40.2541 99.0366 38.1901 97.6692 36.2429C95.5019 33.1589 91.714 32.1613 88.4528 33.0526L82.8672 34.587C82.533 34.6832 81.9759 34.6427 81.3531 34.2274C80.2686 33.5039 79.1387 32.8509 77.9703 32.2727C77.2968 31.9385 76.9879 31.4726 76.8967 31.1384L75.4383 25.5326C74.5774 22.2663 71.8125 19.4811 68.0499 19.157C66.8695 19.0534 65.6851 19.001 64.5001 19V19ZM72.0961 59.5119C72.0961 61.5265 71.2958 63.4586 69.8713 64.8831C68.4467 66.3076 66.5147 67.1079 64.5001 67.1079C62.4855 67.1079 60.5534 66.3076 59.1289 64.8831C57.7044 63.4586 56.9041 61.5265 56.9041 59.5119C56.9041 57.4974 57.7044 55.5653 59.1289 54.1408C60.5534 52.7162 62.4855 51.916 64.5001 51.916C66.5147 51.916 68.4467 52.7162 69.8713 54.1408C71.2958 55.5653 72.0961 57.4974 72.0961 59.5119V59.5119ZM79.6921 59.5119C79.6921 63.5411 78.0915 67.4052 75.2424 70.2543C72.3934 73.1033 68.5293 74.7039 64.5001 74.7039C60.4709 74.7039 56.6068 73.1033 53.7577 70.2543C50.9087 67.4052 49.3081 63.5411 49.3081 59.5119C49.3081 55.4828 50.9087 51.6186 53.7577 48.7696C56.6068 45.9205 60.4709 44.32 64.5001 44.32C68.5293 44.32 72.3934 45.9205 75.2424 48.7696C78.0915 51.6186 79.6921 55.4828 79.6921 59.5119V59.5119Z" fill="#726767"/>
</svg>
