<svg width="129" height="120" viewBox="0 0 129 120" fill="none" xmlns="http://www.w3.org/2000/svg">
<ellipse cx="64.5" cy="60" rx="64.5" ry="60" fill="#C4C4C4"/>
<path d="M53.6702 81.5587C53.6702 81.8441 53.3421 82.0723 52.9283 82.0723C52.4575 82.1151 52.1293 81.8869 52.1293 81.5587C52.1293 81.2733 52.4575 81.0451 52.8712 81.0451C53.2993 81.0023 53.6702 81.2305 53.6702 81.5587ZM49.233 80.9166C49.1331 81.202 49.4184 81.5302 49.8465 81.6158C50.2174 81.7584 50.6455 81.6158 50.7311 81.3304C50.8167 81.0451 50.5456 80.7169 50.1176 80.5885C49.7466 80.4886 49.3328 80.6313 49.233 80.9166ZM55.5393 80.6741C55.1255 80.774 54.8402 81.0451 54.883 81.3732C54.9258 81.6586 55.2968 81.8441 55.7248 81.7442C56.1386 81.6443 56.4239 81.3732 56.3811 81.0879C56.3383 80.8168 55.9531 80.6313 55.5393 80.6741ZM64.9275 26C45.1381 26 30 41.024 30 60.8134C30 76.6363 39.9589 90.1764 54.1839 94.9419C56.0101 95.27 56.6522 94.1429 56.6522 93.2155C56.6522 92.3309 56.6094 87.4513 56.6094 84.4551C56.6094 84.4551 46.622 86.5952 44.5246 80.2033C44.5246 80.2033 42.8981 76.0513 40.5582 74.9813C40.5582 74.9813 37.2908 72.7412 40.7864 72.784C40.7864 72.784 44.3391 73.0694 46.2938 76.4651C49.4184 81.9725 54.6547 80.3887 56.695 79.4471C57.0232 77.1642 57.9506 75.5805 58.9778 74.6388C51.0022 73.7542 42.9551 72.5985 42.9551 58.8729C42.9551 54.9493 44.0395 52.9804 46.3223 50.4692C45.9514 49.5418 44.7386 45.7181 46.6933 40.7814C49.6753 39.854 56.5381 44.6337 56.5381 44.6337C59.3916 43.8347 62.4592 43.4209 65.4982 43.4209C68.5372 43.4209 71.6048 43.8347 74.4584 44.6337C74.4584 44.6337 81.3212 39.8397 84.3031 40.7814C86.2578 45.7323 85.0451 49.5418 84.6741 50.4692C86.9569 52.9946 88.3552 54.9636 88.3552 58.8729C88.3552 72.6413 79.9515 73.74 71.9758 74.6388C73.2884 75.766 74.4013 77.9061 74.4013 81.2591C74.4013 86.0673 74.3585 92.017 74.3585 93.1869C74.3585 94.1143 75.0148 95.2415 76.8268 94.9133C91.0946 90.1764 100.768 76.6363 100.768 60.8134C100.768 41.024 84.7169 26 64.9275 26ZM43.8683 75.2095C43.6828 75.3522 43.7256 75.6804 43.9681 75.9515C44.1964 76.1798 44.5246 76.2796 44.7101 76.0941C44.8956 75.9515 44.8527 75.6233 44.6102 75.3522C44.3819 75.1239 44.0538 75.0241 43.8683 75.2095ZM42.3274 74.0539C42.2275 74.2393 42.3702 74.4676 42.6555 74.6103C42.8838 74.753 43.1692 74.7102 43.269 74.5104C43.3689 74.3249 43.2262 74.0967 42.9409 73.954C42.6555 73.8684 42.4272 73.9112 42.3274 74.0539ZM46.9501 79.1332C46.7218 79.3187 46.8074 79.7467 47.1356 80.0178C47.4638 80.3459 47.8775 80.3887 48.063 80.1605C48.2485 79.975 48.1629 79.5469 47.8775 79.2759C47.5636 78.9477 47.1356 78.9049 46.9501 79.1332ZM45.3236 77.0358C45.0953 77.1785 45.0953 77.5495 45.3236 77.8776C45.5519 78.2058 45.9371 78.3485 46.1226 78.2058C46.3509 78.0203 46.3509 77.6493 46.1226 77.3212C45.9228 76.993 45.5519 76.8503 45.3236 77.0358Z" fill="#726767"/>
</svg>
