<svg width="129" height="120" viewBox="0 0 129 120" fill="none" xmlns="http://www.w3.org/2000/svg">
<ellipse cx="64.5" cy="60" rx="64.5" ry="60" fill="#C4C4C4"/>
<path d="M96.0552 44.1974C95.3028 41.3644 93.086 39.1331 90.2712 38.3759C85.1693 37 64.7112 37 64.7112 37C64.7112 37 44.2531 37 39.1511 38.3759C36.3363 39.1332 34.1195 41.3644 33.3671 44.1974C32 49.3326 32 60.0465 32 60.0465C32 60.0465 32 70.7604 33.3671 75.8955C34.1195 78.7286 36.3363 80.8669 39.1511 81.6241C44.2531 83 64.7112 83 64.7112 83C64.7112 83 85.1692 83 90.2712 81.6241C93.086 80.8669 95.3028 78.7286 96.0552 75.8955C97.4223 70.7604 97.4223 60.0465 97.4223 60.0465C97.4223 60.0465 97.4223 49.3326 96.0552 44.1974V44.1974ZM58.0202 69.7739V50.319L75.1191 60.0467L58.0202 69.7739V69.7739Z" fill="#726767"/>
</svg>
